<?xml version="1.0" encoding="UTF-8"?>
<svg width="512" height="512" viewBox="0 0 512 512" xmlns="http://www.w3.org/2000/svg">
  <defs>
    <linearGradient id="grad" x1="0%" y1="0%" x2="100%" y2="100%">
      <stop offset="0%" style="stop-color:#ff79ff;stop-opacity:1" />
      <stop offset="50%" style="stop-color:#d946ef;stop-opacity:1" />
      <stop offset="100%" style="stop-color:#a613bc;stop-opacity:1" />
    </linearGradient>
  </defs>
  <rect width="512" height="512" rx="92" fill="url(#grad)"/>
  <g transform="translate(122.88, 122.88)">
    <svg width="266.24" height="266.24" viewBox="0 0 512 512">
      <g fill="none" stroke="white" stroke-width="36" stroke-linecap="round" stroke-linejoin="round">
        <path d="M256 149C235 107 171 128 171 171C128 171 107 213 107 235C85 256 85 299 107 320C85 363 128 405 171 405C192 448 235 427 235 405"/>
        <path d="M256 149C277 107 341 128 341 171C384 171 405 213 405 235C427 256 427 299 405 320C427 363 384 405 341 405C320 448 277 427 277 405"/>
      </g>
      <g fill="none" stroke="white" stroke-width="30" stroke-linecap="round" stroke-linejoin="round">
        <path d="M256 171V235M256 235L192 277M256 235L320 277M192 277C192 299 192 320 213 341M320 277C320 299 320 320 299 341"/>
      </g>
      <g fill="white">
        <circle cx="256" cy="171" r="31"/>
        <circle cx="256" cy="235" r="28"/>
        <circle cx="192" cy="277" r="30"/>
        <circle cx="320" cy="277" r="30"/>
        <circle cx="213" cy="341" r="22"/>
        <circle cx="299" cy="341" r="22"/>
      </g>
    </svg>
  </g>
</svg>